<svg xmlns="http://www.w3.org/2000/svg" width="169.517734375" height="400.0"><line x1="34.7588671875" x2="139.517734375" y1="25.0" y2="25.0" stroke="#1967d2" stroke-width="1" /><line x1="34.7588671875" x2="139.517734375" y1="75.0" y2="75.0" stroke="#1967d2" stroke-width="1" /><line x1="34.7588671875" x2="139.517734375" y1="125.0" y2="125.0" stroke="#1967d2" stroke-width="1" /><line x1="34.7588671875" x2="139.517734375" y1="175.0" y2="175.0" stroke="#1967d2" stroke-width="1" /><line x1="34.7588671875" x2="139.517734375" y1="225.0" y2="225.0" stroke="#1967d2" stroke-width="1" /><line x1="34.7588671875" x2="139.517734375" y1="275.0" y2="275.0" stroke="#1967d2" stroke-width="1" /><line x1="34.7588671875" x2="139.517734375" y1="325.0" y2="325.0" stroke="#1967d2" stroke-width="1" /><line x1="34.7588671875" x2="139.517734375" y1="375.0" y2="375.0" stroke="#1967d2" stroke-width="1" /><rect x="10.0" y="5.0" width="49.517734375" height="40" stroke="black" fill="white" stroke-width="0" /><text x="34.7588671875" y="25.0" dominant-baseline="middle" text-anchor="middle" font-size="14px" font-family="Arial">(0, 0): </text><rect x="10.0" y="55.0" width="49.517734375" height="40" stroke="black" fill="white" stroke-width="0" /><text x="34.7588671875" y="75.0" dominant-baseline="middle" text-anchor="middle" font-size="14px" font-family="Arial">(0, 1): </text><rect x="10.0" y="105.0" width="49.517734375" height="40" stroke="black" fill="white" stroke-width="0" /><text x="34.7588671875" y="125.0" dominant-baseline="middle" text-anchor="middle" font-size="14px" font-family="Arial">(0, 2): </text><rect x="10.0" y="155.0" width="49.517734375" height="40" stroke="black" fill="white" stroke-width="0" /><text x="34.7588671875" y="175.0" dominant-baseline="middle" text-anchor="middle" font-size="14px" font-family="Arial">(0, 3): </text><rect x="10.0" y="205.0" width="49.517734375" height="40" stroke="black" fill="white" stroke-width="0" /><text x="34.7588671875" y="225.0" dominant-baseline="middle" text-anchor="middle" font-size="14px" font-family="Arial">(2, 0): </text><rect x="10.0" y="255.0" width="49.517734375" height="40" stroke="black" fill="white" stroke-width="0" /><text x="34.7588671875" y="275.0" dominant-baseline="middle" text-anchor="middle" font-size="14px" font-family="Arial">(2, 1): </text><rect x="10.0" y="305.0" width="49.517734375" height="40" stroke="black" fill="white" stroke-width="0" /><text x="34.7588671875" y="325.0" dominant-baseline="middle" text-anchor="middle" font-size="14px" font-family="Arial">(2, 2): </text><rect x="10.0" y="355.0" width="49.517734375" height="40" stroke="black" fill="white" stroke-width="0" /><text x="34.7588671875" y="375.0" dominant-baseline="middle" text-anchor="middle" font-size="14px" font-family="Arial">(2, 3): </text><rect x="79.517734375" y="5.0" width="40" height="40" stroke="black" fill="white" stroke-width="1" /><text x="99.517734375" y="25.0" dominant-baseline="middle" text-anchor="middle" font-size="18px" font-family="Arial">X</text><rect x="79.517734375" y="55.0" width="40" height="40" stroke="black" fill="white" stroke-width="1" /><text x="99.517734375" y="75.0" dominant-baseline="middle" text-anchor="middle" font-size="18px" font-family="Arial">X</text><rect x="79.517734375" y="105.0" width="40" height="40" stroke="black" fill="white" stroke-width="1" /><text x="99.517734375" y="125.0" dominant-baseline="middle" text-anchor="middle" font-size="18px" font-family="Arial">X</text><rect x="79.517734375" y="155.0" width="40" height="40" stroke="black" fill="white" stroke-width="1" /><text x="99.517734375" y="175.0" dominant-baseline="middle" text-anchor="middle" font-size="18px" font-family="Arial">X</text><rect x="79.517734375" y="205.0" width="40" height="40" stroke="black" fill="white" stroke-width="1" /><text x="99.517734375" y="225.0" dominant-baseline="middle" text-anchor="middle" font-size="18px" font-family="Arial">X</text><rect x="79.517734375" y="255.0" width="40" height="40" stroke="black" fill="white" stroke-width="1" /><text x="99.517734375" y="275.0" dominant-baseline="middle" text-anchor="middle" font-size="18px" font-family="Arial">X</text><rect x="79.517734375" y="305.0" width="40" height="40" stroke="black" fill="white" stroke-width="1" /><text x="99.517734375" y="325.0" dominant-baseline="middle" text-anchor="middle" font-size="18px" font-family="Arial">X</text><rect x="79.517734375" y="355.0" width="40" height="40" stroke="black" fill="white" stroke-width="1" /><text x="99.517734375" y="375.0" dominant-baseline="middle" text-anchor="middle" font-size="18px" font-family="Arial">X</text></svg>