<svg xmlns="http://www.w3.org/2000/svg" width="4784.299062500002" height="950.0"><line x1="39.810625" x2="4754.299062500002" y1="25.0" y2="25.0" stroke="#1967d2" stroke-width="1" /><line x1="39.810625" x2="4754.299062500002" y1="75.0" y2="75.0" stroke="#1967d2" stroke-width="1" /><line x1="39.810625" x2="4754.299062500002" y1="125.0" y2="125.0" stroke="#1967d2" stroke-width="1" /><line x1="39.810625" x2="4754.299062500002" y1="175.0" y2="175.0" stroke="#1967d2" stroke-width="1" /><line x1="39.810625" x2="4754.299062500002" y1="225.0" y2="225.0" stroke="#1967d2" stroke-width="1" /><line x1="39.810625" x2="4754.299062500002" y1="275.0" y2="275.0" stroke="#1967d2" stroke-width="1" /><line x1="39.810625" x2="4754.299062500002" y1="325.0" y2="325.0" stroke="#1967d2" stroke-width="1" /><line x1="39.810625" x2="4754.299062500002" y1="375.0" y2="375.0" stroke="#1967d2" stroke-width="1" /><line x1="39.810625" x2="4754.299062500002" y1="425.0" y2="425.0" stroke="#1967d2" stroke-width="1" /><line x1="39.810625" x2="4754.299062500002" y1="475.0" y2="475.0" stroke="#1967d2" stroke-width="1" /><line x1="39.810625" x2="4754.299062500002" y1="525.0" y2="525.0" stroke="#1967d2" stroke-width="1" /><line x1="39.810625" x2="4754.299062500002" y1="575.0" y2="575.0" stroke="#1967d2" stroke-width="1" /><line x1="39.810625" x2="4754.299062500002" y1="625.0" y2="625.0" stroke="#1967d2" stroke-width="1" /><line x1="39.810625" x2="4754.299062500002" y1="675.0" y2="675.0" stroke="#1967d2" stroke-width="1" /><line x1="39.810625" x2="4754.299062500002" y1="725.0" y2="725.0" stroke="#1967d2" stroke-width="1" /><line x1="39.810625" x2="4754.299062500002" y1="775.0" y2="775.0" stroke="#1967d2" stroke-width="1" /><line x1="39.810625" x2="4754.299062500002" y1="825.0" y2="825.0" stroke="#1967d2" stroke-width="1" /><line x1="39.810625" x2="4754.299062500002" y1="875.0" y2="875.0" stroke="#1967d2" stroke-width="1" /><line x1="39.810625" x2="4754.299062500002" y1="925.0" y2="925.0" stroke="#1967d2" stroke-width="1" /><line x1="207.21625" x2="207.21625" y1="25.0" y2="75.0" stroke="black" stroke-width="3" /><line x1="462.40625000000006" x2="462.40625000000006" y1="25.0" y2="125.0" stroke="black" stroke-width="3" /><line x1="717.59625" x2="717.59625" y1="25.0" y2="175.0" stroke="black" stroke-width="3" /><line x1="972.7862500000001" x2="972.7862500000001" y1="25.0" y2="225.0" stroke="black" stroke-width="3" /><line x1="1227.9762500000002" x2="1227.9762500000002" y1="25.0" y2="275.0" stroke="black" stroke-width="3" /><line x1="1483.1662500000002" x2="1483.1662500000002" y1="25.0" y2="325.0" stroke="black" stroke-width="3" /><line x1="1738.3562500000003" x2="1738.3562500000003" y1="25.0" y2="375.0" stroke="black" stroke-width="3" /><line x1="1993.5462500000003" x2="1993.5462500000003" y1="25.0" y2="425.0" stroke="black" stroke-width="3" /><line x1="2248.73625" x2="2248.73625" y1="25.0" y2="475.0" stroke="black" stroke-width="3" /><line x1="2503.92625" x2="2503.92625" y1="25.0" y2="525.0" stroke="black" stroke-width="3" /><line x1="2763.56986328125" x2="2763.56986328125" y1="25.0" y2="575.0" stroke="black" stroke-width="3" /><line x1="3027.6670898437505" x2="3027.6670898437505" y1="25.0" y2="625.0" stroke="black" stroke-width="3" /><line x1="3291.76431640625" x2="3291.76431640625" y1="25.0" y2="675.0" stroke="black" stroke-width="3" /><line x1="3555.8615429687507" x2="3555.8615429687507" y1="25.0" y2="725.0" stroke="black" stroke-width="3" /><line x1="3819.9587695312503" x2="3819.9587695312503" y1="25.0" y2="775.0" stroke="black" stroke-width="3" /><line x1="4084.0559960937508" x2="4084.0559960937508" y1="25.0" y2="825.0" stroke="black" stroke-width="3" /><line x1="4348.153222656251" x2="4348.153222656251" y1="25.0" y2="875.0" stroke="black" stroke-width="3" /><line x1="4612.250449218752" x2="4612.250449218752" y1="25.0" y2="925.0" stroke="black" stroke-width="3" /><rect x="10.0" y="5.0" width="59.62125" height="40" stroke="black" fill="white" stroke-width="0" /><text x="39.810625" y="25.0" dominant-baseline="middle" text-anchor="middle" font-size="14px" font-family="Arial">(-1, -1): </text><rect x="10.0" y="55.0" width="59.62125" height="40" stroke="black" fill="white" stroke-width="0" /><text x="39.810625" y="75.0" dominant-baseline="middle" text-anchor="middle" font-size="14px" font-family="Arial">(0, 0): </text><rect x="10.0" y="105.0" width="59.62125" height="40" stroke="black" fill="white" stroke-width="0" /><text x="39.810625" y="125.0" dominant-baseline="middle" text-anchor="middle" font-size="14px" font-family="Arial">(0, 1): </text><rect x="10.0" y="155.0" width="59.62125" height="40" stroke="black" fill="white" stroke-width="0" /><text x="39.810625" y="175.0" dominant-baseline="middle" text-anchor="middle" font-size="14px" font-family="Arial">(0, 2): </text><rect x="10.0" y="205.0" width="59.62125" height="40" stroke="black" fill="white" stroke-width="0" /><text x="39.810625" y="225.0" dominant-baseline="middle" text-anchor="middle" font-size="14px" font-family="Arial">(0, 3): </text><rect x="10.0" y="255.0" width="59.62125" height="40" stroke="black" fill="white" stroke-width="0" /><text x="39.810625" y="275.0" dominant-baseline="middle" text-anchor="middle" font-size="14px" font-family="Arial">(0, 4): </text><rect x="10.0" y="305.0" width="59.62125" height="40" stroke="black" fill="white" stroke-width="0" /><text x="39.810625" y="325.0" dominant-baseline="middle" text-anchor="middle" font-size="14px" font-family="Arial">(0, 5): </text><rect x="10.0" y="355.0" width="59.62125" height="40" stroke="black" fill="white" stroke-width="0" /><text x="39.810625" y="375.0" dominant-baseline="middle" text-anchor="middle" font-size="14px" font-family="Arial">(1, 0): </text><rect x="10.0" y="405.0" width="59.62125" height="40" stroke="black" fill="white" stroke-width="0" /><text x="39.810625" y="425.0" dominant-baseline="middle" text-anchor="middle" font-size="14px" font-family="Arial">(1, 1): </text><rect x="10.0" y="455.0" width="59.62125" height="40" stroke="black" fill="white" stroke-width="0" /><text x="39.810625" y="475.0" dominant-baseline="middle" text-anchor="middle" font-size="14px" font-family="Arial">(1, 2): </text><rect x="10.0" y="505.0" width="59.62125" height="40" stroke="black" fill="white" stroke-width="0" /><text x="39.810625" y="525.0" dominant-baseline="middle" text-anchor="middle" font-size="14px" font-family="Arial">(1, 3): </text><rect x="10.0" y="555.0" width="59.62125" height="40" stroke="black" fill="white" stroke-width="0" /><text x="39.810625" y="575.0" dominant-baseline="middle" text-anchor="middle" font-size="14px" font-family="Arial">(1, 4): </text><rect x="10.0" y="605.0" width="59.62125" height="40" stroke="black" fill="white" stroke-width="0" /><text x="39.810625" y="625.0" dominant-baseline="middle" text-anchor="middle" font-size="14px" font-family="Arial">(1, 5): </text><rect x="10.0" y="655.0" width="59.62125" height="40" stroke="black" fill="white" stroke-width="0" /><text x="39.810625" y="675.0" dominant-baseline="middle" text-anchor="middle" font-size="14px" font-family="Arial">(2, 0): </text><rect x="10.0" y="705.0" width="59.62125" height="40" stroke="black" fill="white" stroke-width="0" /><text x="39.810625" y="725.0" dominant-baseline="middle" text-anchor="middle" font-size="14px" font-family="Arial">(2, 1): </text><rect x="10.0" y="755.0" width="59.62125" height="40" stroke="black" fill="white" stroke-width="0" /><text x="39.810625" y="775.0" dominant-baseline="middle" text-anchor="middle" font-size="14px" font-family="Arial">(2, 2): </text><rect x="10.0" y="805.0" width="59.62125" height="40" stroke="black" fill="white" stroke-width="0" /><text x="39.810625" y="825.0" dominant-baseline="middle" text-anchor="middle" font-size="14px" font-family="Arial">(2, 3): </text><rect x="10.0" y="855.0" width="59.62125" height="40" stroke="black" fill="white" stroke-width="0" /><text x="39.810625" y="875.0" dominant-baseline="middle" text-anchor="middle" font-size="14px" font-family="Arial">(2, 4): </text><rect x="10.0" y="905.0" width="59.62125" height="40" stroke="black" fill="white" stroke-width="0" /><text x="39.810625" y="925.0" dominant-baseline="middle" text-anchor="middle" font-size="14px" font-family="Arial">(2, 5): </text><rect x="89.62124999999999" y="55.0" width="235.19000000000003" height="40" stroke="black" fill="white" stroke-width="1" /><text x="207.21625" y="75.0" dominant-baseline="middle" text-anchor="middle" font-size="14px" font-family="Arial">XX^(Emirhan_Quantum6G_AI-0)</text><rect x="89.62124999999999" y="5.0" width="235.19000000000003" height="40" stroke="black" fill="white" stroke-width="1" /><text x="207.21625" y="25.0" dominant-baseline="middle" text-anchor="middle" font-size="14px" font-family="Arial">XX</text><rect x="344.81125000000003" y="105.0" width="235.19000000000003" height="40" stroke="black" fill="white" stroke-width="1" /><text x="462.40625000000006" y="125.0" dominant-baseline="middle" text-anchor="middle" font-size="14px" font-family="Arial">XX^(Emirhan_Quantum6G_AI-1)</text><rect x="344.81125000000003" y="5.0" width="235.19000000000003" height="40" stroke="black" fill="white" stroke-width="1" /><text x="462.40625000000006" y="25.0" dominant-baseline="middle" text-anchor="middle" font-size="14px" font-family="Arial">XX</text><rect x="600.00125" y="155.0" width="235.19000000000003" height="40" stroke="black" fill="white" stroke-width="1" /><text x="717.59625" y="175.0" dominant-baseline="middle" text-anchor="middle" font-size="14px" font-family="Arial">XX^(Emirhan_Quantum6G_AI-2)</text><rect x="600.00125" y="5.0" width="235.19000000000003" height="40" stroke="black" fill="white" stroke-width="1" /><text x="717.59625" y="25.0" dominant-baseline="middle" text-anchor="middle" font-size="14px" font-family="Arial">XX</text><rect x="855.1912500000001" y="205.0" width="235.19000000000003" height="40" stroke="black" fill="white" stroke-width="1" /><text x="972.7862500000001" y="225.0" dominant-baseline="middle" text-anchor="middle" font-size="14px" font-family="Arial">XX^(Emirhan_Quantum6G_AI-3)</text><rect x="855.1912500000001" y="5.0" width="235.19000000000003" height="40" stroke="black" fill="white" stroke-width="1" /><text x="972.7862500000001" y="25.0" dominant-baseline="middle" text-anchor="middle" font-size="14px" font-family="Arial">XX</text><rect x="1110.3812500000001" y="255.0" width="235.19000000000003" height="40" stroke="black" fill="white" stroke-width="1" /><text x="1227.9762500000002" y="275.0" dominant-baseline="middle" text-anchor="middle" font-size="14px" font-family="Arial">XX^(Emirhan_Quantum6G_AI-4)</text><rect x="1110.3812500000001" y="5.0" width="235.19000000000003" height="40" stroke="black" fill="white" stroke-width="1" /><text x="1227.9762500000002" y="25.0" dominant-baseline="middle" text-anchor="middle" font-size="14px" font-family="Arial">XX</text><rect x="1365.5712500000002" y="305.0" width="235.19000000000003" height="40" stroke="black" fill="white" stroke-width="1" /><text x="1483.1662500000002" y="325.0" dominant-baseline="middle" text-anchor="middle" font-size="14px" font-family="Arial">XX^(Emirhan_Quantum6G_AI-5)</text><rect x="1365.5712500000002" y="5.0" width="235.19000000000003" height="40" stroke="black" fill="white" stroke-width="1" /><text x="1483.1662500000002" y="25.0" dominant-baseline="middle" text-anchor="middle" font-size="14px" font-family="Arial">XX</text><rect x="1620.7612500000002" y="355.0" width="235.19000000000003" height="40" stroke="black" fill="white" stroke-width="1" /><text x="1738.3562500000003" y="375.0" dominant-baseline="middle" text-anchor="middle" font-size="14px" font-family="Arial">XX^(Emirhan_Quantum6G_AI-6)</text><rect x="1620.7612500000002" y="5.0" width="235.19000000000003" height="40" stroke="black" fill="white" stroke-width="1" /><text x="1738.3562500000003" y="25.0" dominant-baseline="middle" text-anchor="middle" font-size="14px" font-family="Arial">XX</text><rect x="1875.9512500000003" y="405.0" width="235.19000000000003" height="40" stroke="black" fill="white" stroke-width="1" /><text x="1993.5462500000003" y="425.0" dominant-baseline="middle" text-anchor="middle" font-size="14px" font-family="Arial">XX^(Emirhan_Quantum6G_AI-7)</text><rect x="1875.9512500000003" y="5.0" width="235.19000000000003" height="40" stroke="black" fill="white" stroke-width="1" /><text x="1993.5462500000003" y="25.0" dominant-baseline="middle" text-anchor="middle" font-size="14px" font-family="Arial">XX</text><rect x="2131.14125" y="455.0" width="235.19000000000003" height="40" stroke="black" fill="white" stroke-width="1" /><text x="2248.73625" y="475.0" dominant-baseline="middle" text-anchor="middle" font-size="14px" font-family="Arial">XX^(Emirhan_Quantum6G_AI-8)</text><rect x="2131.14125" y="5.0" width="235.19000000000003" height="40" stroke="black" fill="white" stroke-width="1" /><text x="2248.73625" y="25.0" dominant-baseline="middle" text-anchor="middle" font-size="14px" font-family="Arial">XX</text><rect x="2386.33125" y="505.0" width="235.19000000000003" height="40" stroke="black" fill="white" stroke-width="1" /><text x="2503.92625" y="525.0" dominant-baseline="middle" text-anchor="middle" font-size="14px" font-family="Arial">XX^(Emirhan_Quantum6G_AI-9)</text><rect x="2386.33125" y="5.0" width="235.19000000000003" height="40" stroke="black" fill="white" stroke-width="1" /><text x="2503.92625" y="25.0" dominant-baseline="middle" text-anchor="middle" font-size="14px" font-family="Arial">XX</text><rect x="2641.52125" y="555.0" width="244.09722656250005" height="40" stroke="black" fill="white" stroke-width="1" /><text x="2763.56986328125" y="575.0" dominant-baseline="middle" text-anchor="middle" font-size="14px" font-family="Arial">XX^(Emirhan_Quantum6G_AI-10)</text><rect x="2641.52125" y="5.0" width="244.09722656250005" height="40" stroke="black" fill="white" stroke-width="1" /><text x="2763.56986328125" y="25.0" dominant-baseline="middle" text-anchor="middle" font-size="14px" font-family="Arial">XX</text><rect x="2905.6184765625003" y="605.0" width="244.09722656250005" height="40" stroke="black" fill="white" stroke-width="1" /><text x="3027.6670898437505" y="625.0" dominant-baseline="middle" text-anchor="middle" font-size="14px" font-family="Arial">XX^(Emirhan_Quantum6G_AI-11)</text><rect x="2905.6184765625003" y="5.0" width="244.09722656250005" height="40" stroke="black" fill="white" stroke-width="1" /><text x="3027.6670898437505" y="25.0" dominant-baseline="middle" text-anchor="middle" font-size="14px" font-family="Arial">XX</text><rect x="3169.715703125" y="655.0" width="244.09722656250005" height="40" stroke="black" fill="white" stroke-width="1" /><text x="3291.76431640625" y="675.0" dominant-baseline="middle" text-anchor="middle" font-size="14px" font-family="Arial">XX^(Emirhan_Quantum6G_AI-12)</text><rect x="3169.715703125" y="5.0" width="244.09722656250005" height="40" stroke="black" fill="white" stroke-width="1" /><text x="3291.76431640625" y="25.0" dominant-baseline="middle" text-anchor="middle" font-size="14px" font-family="Arial">XX</text><rect x="3433.8129296875004" y="705.0" width="244.09722656250005" height="40" stroke="black" fill="white" stroke-width="1" /><text x="3555.8615429687507" y="725.0" dominant-baseline="middle" text-anchor="middle" font-size="14px" font-family="Arial">XX^(Emirhan_Quantum6G_AI-13)</text><rect x="3433.8129296875004" y="5.0" width="244.09722656250005" height="40" stroke="black" fill="white" stroke-width="1" /><text x="3555.8615429687507" y="25.0" dominant-baseline="middle" text-anchor="middle" font-size="14px" font-family="Arial">XX</text><rect x="3697.91015625" y="755.0" width="244.09722656250005" height="40" stroke="black" fill="white" stroke-width="1" /><text x="3819.9587695312503" y="775.0" dominant-baseline="middle" text-anchor="middle" font-size="14px" font-family="Arial">XX^(Emirhan_Quantum6G_AI-14)</text><rect x="3697.91015625" y="5.0" width="244.09722656250005" height="40" stroke="black" fill="white" stroke-width="1" /><text x="3819.9587695312503" y="25.0" dominant-baseline="middle" text-anchor="middle" font-size="14px" font-family="Arial">XX</text><rect x="3962.0073828125005" y="805.0" width="244.09722656250005" height="40" stroke="black" fill="white" stroke-width="1" /><text x="4084.0559960937508" y="825.0" dominant-baseline="middle" text-anchor="middle" font-size="14px" font-family="Arial">XX^(Emirhan_Quantum6G_AI-15)</text><rect x="3962.0073828125005" y="5.0" width="244.09722656250005" height="40" stroke="black" fill="white" stroke-width="1" /><text x="4084.0559960937508" y="25.0" dominant-baseline="middle" text-anchor="middle" font-size="14px" font-family="Arial">XX</text><rect x="4226.104609375001" y="855.0" width="244.09722656250005" height="40" stroke="black" fill="white" stroke-width="1" /><text x="4348.153222656251" y="875.0" dominant-baseline="middle" text-anchor="middle" font-size="14px" font-family="Arial">XX^(Emirhan_Quantum6G_AI-16)</text><rect x="4226.104609375001" y="5.0" width="244.09722656250005" height="40" stroke="black" fill="white" stroke-width="1" /><text x="4348.153222656251" y="25.0" dominant-baseline="middle" text-anchor="middle" font-size="14px" font-family="Arial">XX</text><rect x="4490.2018359375015" y="905.0" width="244.09722656250005" height="40" stroke="black" fill="white" stroke-width="1" /><text x="4612.250449218752" y="925.0" dominant-baseline="middle" text-anchor="middle" font-size="14px" font-family="Arial">XX^(Emirhan_Quantum6G_AI-17)</text><rect x="4490.2018359375015" y="5.0" width="244.09722656250005" height="40" stroke="black" fill="white" stroke-width="1" /><text x="4612.250449218752" y="25.0" dominant-baseline="middle" text-anchor="middle" font-size="14px" font-family="Arial">XX</text></svg>