<svg xmlns="http://www.w3.org/2000/svg" width="16" height="17" viewBox="0 0 16 17" fill="#a30000">
    <path d="M10.5033 10.0033H9.97659L9.78992 9.82335C10.4433 9.06335 10.8366 8.07668 10.8366 7.00335C10.8366 4.61001 8.89659 2.67001 6.50326 2.67001C4.10992 2.67001 2.16992 4.61001 2.16992 7.00335C2.16992 9.39668 4.10992 11.3367 6.50326 11.3367C7.57659 11.3367 8.56326 10.9433 9.32326 10.29L9.50326 10.4767V11.0033L12.8366 14.33L13.8299 13.3367L10.5033 10.0033ZM6.50326 10.0033C4.84326 10.0033 3.50326 8.66335 3.50326 7.00335C3.50326 5.34335 4.84326 4.00335 6.50326 4.00335C8.16326 4.00335 9.50326 5.34335 9.50326 7.00335C9.50326 8.66335 8.16326 10.0033 6.50326 10.0033Z"/>
</svg>
